# xmcd CD database file
#
# Track frame offsets:
#	151
#	16671
#	32068
#	45403
#	60395
#	72635
#	91929
#	103497
#	116472
#	131546
#	145302
#	162248
#	174874
#	187707
#	206418
#	225064
#	244872
#	257564
#	271070
#	284708
#
# Disc length: 3995 seconds
#
# Revision: 0
# Processed by: cddbd v1.4PL0 Copyright (c) Steve Scherf et al.
# Submitted via: CDex 1.40Release
#
DISCID=090f9914
DTITLE=Sidney Bechet - The Best of
DYEAR=2001
DGENRE=Blues
TTITLE0=Really The Blues
TTITLE1=Freight Train Blues
TTITLE2=Blues In Thirds
TTITLE3=Trixie Blues
TTITLE4=Revolutionary Blues
TTITLE5=Ols Stack O'Lee Blues
TTITLE6=Out Of The Gallion
TTITLE7=Sidney's Blues
TTITLE8=Wild Man Blues
TTITLE9=Weary Blues
TTITLE10=Careless Love
TTITLE11=Blues In The Air
TTITLE12=He May Be Your Man, But He Comes To See Me Sometimes
TTITLE13=Milk Cow Blues
TTITLE14=Lonesome Blues
TTITLE15=Blues For Tommy
TTITLE16=Blue For You, Johnny
TTITLE17=Saturday Night Blues
TTITLE18=Characteristic Blues
TTITLE19=Basement Blues
EXTD=YEAR: 2001 ID3G: 0
EXTT0=
EXTT1=
EXTT2=
EXTT3=
EXTT4=
EXTT5=
EXTT6=
EXTT7=
EXTT8=
EXTT9=
EXTT10=
EXTT11=
EXTT12=
EXTT13=
EXTT14=
EXTT15=
EXTT16=
EXTT17=
EXTT18=
EXTT19=
PLAYORDER=
